<?xml version="1.0" encoding="utf-8"?>
<!-- Generator: Adobe Illustrator 22.1.0, SVG Export Plug-In . SVG Version: 6.00 Build 0)  -->
<svg version="1.1" id="Layer_1" xmlns="http://www.w3.org/2000/svg" xmlns:xlink="http://www.w3.org/1999/xlink" x="0px" y="0px"
	 viewBox="0 0 299 34" style="enable-background:new 0 0 299 34;" xml:space="preserve">
<style type="text/css">
	.st0{fill:#FFFFFF;}
</style>
<g>
	<path class="st0" d="M200.7,33.6c-1.4,0-2.4-0.3-3.1-1c-0.7-0.7-1-1.6-1-2.6V29c0-1.1,0.3-2,1-2.6c0.7-0.7,1.7-1,3.1-1
		s2.4,0.3,3.1,1c0.7,0.7,1,1.6,1,2.6V30c0,1.1-0.3,2-1,2.6C203.1,33.3,202.1,33.6,200.7,33.6z"/>
	<g>
		<path class="st0" d="M154.2,7.5c0,2.2,0,4.4,0,6.6c2.8,0,5.6,0,8.3,0c0,2.4-0.1,4.7-0.1,7.1c-2.7,0-5.5,0-8.2,0
			c0,4.1,0,8.1,0,12.2c-2.3,0-4.7,0-7,0c0-10.7,0-21.4,0-32.1c5.2,0,10.5,0,15.7,0v6.2H154.2z"/>
		<path class="st0" d="M102.1,33.6c-2.8,0-5.2-0.5-7.2-1.5c-2-1-3.6-2.2-5-3.8l4.6-4.7c2.2,2.4,4.9,3.6,8.1,3.6c1.7,0,3-0.3,3.8-1
			c0.8-0.7,1.2-1.6,1.2-2.8c0-0.9-0.2-1.6-0.7-2.2c-0.5-0.6-1.5-1-3-1.2l-3.2-0.4c-3.4-0.4-5.9-1.5-7.5-3.1
			c-1.6-1.6-2.4-3.8-2.4-6.5c0-1.4,0.3-2.8,0.8-4C92.3,5,93.1,4,94.1,3.1c1-0.9,2.3-1.5,3.8-2c1.5-0.5,3.2-0.7,5.1-0.7
			c2.4,0,4.6,0.4,6.4,1.2c1.8,0.8,3.4,1.9,4.7,3.4l-4.6,4.7c-0.8-0.9-1.7-1.6-2.8-2.2c-1.1-0.6-2.5-0.8-4.1-0.8
			c-1.6,0-2.7,0.3-3.5,0.8c-0.8,0.5-1.1,1.3-1.1,2.3c0,1.1,0.3,1.9,0.9,2.4c0.6,0.5,1.6,0.8,2.9,1l3.2,0.5c3.3,0.5,5.8,1.5,7.4,3.1
			c1.6,1.5,2.4,3.7,2.4,6.5c0,1.5-0.3,2.9-0.8,4.2c-0.6,1.3-1.4,2.4-2.4,3.3c-1.1,0.9-2.4,1.6-3.9,2.1
			C105.9,33.4,104.1,33.6,102.1,33.6z"/>
		<path class="st0" d="M130.3,33.7c-2.1,0-4-0.4-5.8-1.1s-3.2-1.8-4.5-3.2c-1.2-1.4-2.2-3.1-2.9-5.2c-0.7-2.1-1-4.5-1-7.2
			s0.3-5.1,1-7.2c0.7-2.1,1.6-3.8,2.9-5.2c1.2-1.4,2.7-2.4,4.5-3.2c1.7-0.7,3.7-1.1,5.8-1.1s4,0.4,5.8,1.1c1.7,0.7,3.2,1.8,4.5,3.2
			c1.2,1.4,2.2,3.1,2.9,5.2c0.7,2.1,1,4.5,1,7.2s-0.3,5.1-1,7.2c-0.7,2.1-1.6,3.8-2.9,5.2c-1.2,1.4-2.7,2.4-4.5,3.2
			S132.4,33.7,130.3,33.7z M130.3,27.5c2.1,0,3.8-0.7,4.9-2.1c1.2-1.4,1.8-3.4,1.8-5.9v-4.8c0-2.6-0.6-4.6-1.8-5.9
			c-1.2-1.4-2.8-2.1-4.9-2.1s-3.8,0.7-4.9,2.1s-1.8,3.4-1.8,5.9v4.8c0,2.6,0.6,4.6,1.8,5.9S128.2,27.5,130.3,27.5z"/>
		<path class="st0" d="M182.2,7.6v25.9h-7V7.6h-8.7V1.4h24.4v6.2H182.2z"/>
	</g>
</g>
<g>
	<path class="st0" d="M39.5,7.6c0,1.8,0,3.7,0,5.5c2.8,0,5.5,0,8.3-0.1c0,2.2,0,4.5,0,6.7c-2.8,0-5.5,0.1-8.3,0.1c0,2.2,0,4.4,0,6.6
		c2.8,0,5.6,0.1,8.4,0.1c0,2.3,0,4.6,0,6.9c-5.1,0-10.3,0-15.4,0.1c0.1-10.7,0.1-21.4,0.2-32.1c5.2,0,10.4,0,15.5,0v6.2H39.5z"/>
	<path class="st0" d="M3.3,1h12.1c2.1,0,4,0.3,5.8,1c1.7,0.7,3.2,1.7,4.5,3c1.2,1.3,2.2,3,2.9,5c0.7,2,1,4.3,1,7s-0.3,5-1,7
		c-0.7,2-1.6,3.7-2.9,5c-1.2,1.3-2.7,2.3-4.5,3c-1.7,0.7-3.7,1-5.8,1H3.3V1z M15.3,26.9c2.1,0,3.7-0.6,4.9-1.7
		c1.2-1.2,1.8-3,1.8-5.6v-5c0-2.6-0.6-4.4-1.8-5.6c-1.2-1.2-2.8-1.7-4.9-1.7h-5.1v19.7L15.3,26.9L15.3,26.9z"/>
	<path class="st0" d="M53.6,33.5c0-10.7,0-21.4,0-32.1l7,0l0,25.9l8.7,0l0,6.2C64.1,33.5,58.9,33.5,53.6,33.5z"/>
	<path class="st0" d="M80.6,14.1c0,6.5,0.1,13,0.1,19.5h-7c0-6.4-0.1-12.9-0.1-19.3c-3.1-4.3-6.3-8.6-9.4-12.9c2.7,0,5.3-0.1,8-0.1
		c1.6,2.7,3.2,5.4,4.8,8c1.6-2.6,3.3-5.2,4.9-7.8c2.6,0,5.3,0,7.9,0C86.8,5.7,83.7,9.9,80.6,14.1z"/>
</g>
</svg>
